<svg id="Layer_2" data-name="Layer 2" xmlns="http://www.w3.org/2000/svg" viewBox="0 0 764.98 530.7"><defs><style>.cls-1{fill:none;stroke:#000;stroke-linecap:round;stroke-miterlimit:10;stroke-width:17px;}</style></defs><title>provisionalLogoFat</title><path class="cls-1" d="M757.07,378.56c.69,6.78,2.93,18.78,11.47,29.84,7.74,10,16.61,18.38,25.25,18.37,23.38,0,89.36,4.21,151.5,6.88,5.91.26,13.81-5.94,20.66-13.77,10.23-11.68,30-47.43,45.91-78L866,290.71c-4.84-1.69-45.7-110-45.7-110L775.43,259.2c-5.75-2,95.66,33.3,90.57,31.51l-43.35-15.22c-19-6.67-33.54-11.73-47.22-16.29,0,0-29.57-60.23-45.91-94.11L633.11,362.5C551.22,397.26,470,424.38,385.8,450.28c-42.34,13-64.09-1.75-87.82-21.22-25.7-21.08-29.84-71.16-29.84-71.16s66.74-2.73,90.32,18.81c22.42,20.47,26.53,57.21,27.34,73.57,3.56,72.32-58.91,217.37-58.91,217.37l122.76.16,35.15-73.76,37,73.76,113.36-.11L597.39,567.63S481.15,589,487.78,587.92c36.26-6.09,149.48-28,186.65-34.9l-5.2,114.68h71.31c9.87-5.51,85.39-174.36,85.39-174.36,26.68,42,78,131.19,102.13,174.36H823.55l-47.93-65.34" transform="translate(-258.94 -145.62)"/></svg>
