<?xml version="1.0" encoding="utf-8"?>
<!-- Generator: Adobe Illustrator 23.0.6, SVG Export Plug-In . SVG Version: 6.00 Build 0)  -->
<svg version="1.1" id="Layer_1" xmlns="http://www.w3.org/2000/svg" xmlns:xlink="http://www.w3.org/1999/xlink" x="0px" y="0px"
	 viewBox="0 0 456.3 187.5" style="enable-background:new 0 0 456.3 187.5;" xml:space="preserve">
<style type="text/css">
	.st0{fill:#41C3D8;stroke:#FFFFFF;}
	.st1{fill:none;stroke:#FFFFFF;}
	.st2{fill:#74C26D;}
	.st3{clip-path:url(#SVGID_4_);fill:#41C3D8;}
	.st4{fill:#1F4298;}
	.st5{fill:none;stroke:#FFFFFF;stroke-width:2;}
	.st6{fill:#1E4596;}
	.st7{fill:#5F92CC;}
	.st8{font-family:'Helvetica-Bold';}
	.st9{font-size:51.4995px;}
	.st10{clip-path:url(#SVGID_6_);fill:#1E4596;}
</style>
<path class="st0" d="M149.3,131.8l13.8-0.1l100.5,0.5c18.3-17.2,20.5-28.6,20.5-28.6c16.1-33.9,23.9-43.1,23.9-43.1
	c8,3.3,19.7,4.7,19.7,4.7c18.2,2.2,23.7-10.9,23.7-10.9c9.9-15-0.7-12-0.7-12c-6.9-3.6-18.6-9.5-18.6-9.5
	c-1.1-9.1-8.8-15.3-8.8-15.3C315,4.4,297.9,8,297.9,8s-11.7-12-21.5-6.6c0,0-12.4,10.9-17.2,34.7c0,0-4.4,11.7,10.9,17.5
	c0,0,12.4,7.5,18.3-6.4c0,0,2.6-8.6,2.2-12.9l3.3,0.7c0,0-0.7,25.2-18.6,23c0,0-8.4-1.5-15.3-7.3c0,0-6.8,38-24,39.9l-27.6,1.6
	c0,0-23,2.6-36.9,11.4C171.4,103.6,150.9,122.2,149.3,131.8z"/>
<rect x="-21.6" y="-452.6" class="st1" width="1041.5" height="1041.5"/>
<g>
	<g>
		<path id="SVGID_1_" class="st2" d="M104.9,57.7c0,0-3.1,24,23.3,42.6c0,0,14.3,10.6,35.6,0.9l5-2.5c0,0-30.4-2.2-41.1-25.4
			c0,0-10.9-21.8,2.2-30.7c0,0,10.3-7.4,22.2,4.4c0,0,8.8,10.6,10.3,19c0,0-3-37.5-29.1-40.7c0,0-0.7-0.1-1.8-0.1
			C125.6,25.3,107.9,27.8,104.9,57.7"/>
	</g>
	<g>
		<defs>
			<path id="SVGID_2_" d="M104.9,57.7c0,0-3.1,24,23.3,42.6c0,0,14.3,10.6,35.6,0.9l5-2.5c0,0-30.4-2.2-41.1-25.4
				c0,0-10.9-21.8,2.2-30.7c0,0,10.3-7.4,22.2,4.4c0,0,8.8,10.6,10.3,19c0,0-3-37.5-29.1-40.7c0,0-0.7-0.1-1.8-0.1
				C125.6,25.3,107.9,27.8,104.9,57.7"/>
		</defs>
		<clipPath id="SVGID_4_">
			<use xlink:href="#SVGID_2_"  style="overflow:visible;"/>
		</clipPath>
		<rect x="101.7" y="25.3" class="st3" width="66.9" height="85.6"/>
	</g>
</g>
<g>
	<g>
		<path id="SVGID_3_" class="st4" d="M163.3,39.8c0,0-3.7,8.4-1.6,17.2l1.9,5.3l0.3-5.6c0-13.4,10-21.2,10-21.2
			C182.7,28,192,37,192,37c20.6,28.3-17.9,57.8-17.9,57.8s-22.4,18.9-26.1,37.6h118.7l0.5-5.4c1.5-21.2,12-25.6,12-25.6
			c18.3,3.7,21.2-2.9,21.2-2.9c2.6-1.5,5.3-7.5,5.3-7.5c2.9,0,1.7-6,1.7-6c-1.5-2.9-8.4-8.8-8.4-8.8c-7.7-24.5-33.2-19.4-33.2-19.4
			c-2.9-2.9-9.2-18.2-9.2-18.2c0.4,3.3-4.3,18.2-4.3,18.2s-5.8,15.3-6.2,33.2c0,0,0.4,18.7-19.3,25.2c0,0-23,9.4-53.7,4.7l-1.6-0.2
			c2.6-17.9,16.9-30.1,16.9-30.1s14.3-14.1,14.9-41.3c0,0-0.3-19.3-17.5-21.8c0,0-1.4-0.3-3.6-0.3C177.2,26.3,168.1,28.1,163.3,39.8
			"/>
	</g>
	<g>
		<path class="st5" d="M163.3,39.8c0,0-3.7,8.4-1.6,17.2l1.9,5.3l0.3-5.6c0-13.4,10-21.2,10-21.2C182.7,28,192,37,192,37
			c20.6,28.3-17.9,57.8-17.9,57.8s-22.4,18.9-26.1,37.6h118.7l0.5-5.4c1.5-21.2,12-25.6,12-25.6c18.3,3.7,21.2-2.9,21.2-2.9
			c2.6-1.5,5.3-7.5,5.3-7.5c2.9,0,1.7-6,1.7-6c-1.5-2.9-8.4-8.8-8.4-8.8c-7.7-24.5-33.2-19.4-33.2-19.4c-2.9-2.9-9.2-18.2-9.2-18.2
			c0.4,3.3-4.3,18.2-4.3,18.2s-5.8,15.3-6.2,33.2c0,0,0.4,18.7-19.3,25.2c0,0-23,9.4-53.7,4.7l-1.6-0.2
			c2.6-17.9,16.9-30.1,16.9-30.1s14.3-14.1,14.9-41.3c0,0-0.3-19.3-17.5-21.8c0,0-1.4-0.3-3.6-0.3C177.2,26.3,168.1,28.1,163.3,39.8
			"/>
	</g>
</g>
<g>
	<path class="st6" d="M32.5,172.9c-2.8,2.9-6.8,4.3-12.1,4.3c-5.3,0-9.3-1.4-12.1-4.3c-3.8-3.5-5.6-8.6-5.6-15.3
		c0-6.8,1.9-11.9,5.6-15.3c2.8-2.9,6.8-4.3,12.1-4.3c5.3,0,9.3,1.4,12.1,4.3c3.7,3.4,5.6,8.5,5.6,15.3
		C38.1,164.2,36.2,169.3,32.5,172.9z M27.6,167.2c1.8-2.3,2.7-5.5,2.7-9.7c0-4.2-0.9-7.4-2.7-9.6c-1.8-2.3-4.2-3.4-7.3-3.4
		s-5.5,1.1-7.3,3.4c-1.8,2.3-2.7,5.5-2.7,9.7c0,4.2,0.9,7.4,2.7,9.7s4.3,3.4,7.3,3.4C23.4,170.6,25.8,169.5,27.6,167.2z"/>
	<path class="st6" d="M47.7,167.4c0.2,1.3,0.5,2.2,1,2.7c0.9,1,2.5,1.4,5,1.4c1.4,0,2.5-0.2,3.4-0.6c0.8-0.4,1.3-1,1.3-1.9
		c0-0.8-0.3-1.4-1-1.8s-3.2-1.1-7.5-2.2c-3.1-0.8-5.3-1.7-6.6-2.9c-1.3-1.1-1.9-2.8-1.9-4.9c0-2.5,1-4.7,3-6.5
		c2-1.8,4.8-2.7,8.4-2.7c3.4,0,6.2,0.7,8.4,2s3.4,3.7,3.7,7.1h-7.2c-0.1-0.9-0.4-1.7-0.8-2.2c-0.8-1-2.1-1.5-4-1.5
		c-1.6,0-2.7,0.2-3.3,0.7s-1,1.1-1,1.7c0,0.8,0.4,1.4,1.1,1.8c0.7,0.4,3.2,1,7.5,2c2.9,0.7,5,1.7,6.4,3c1.4,1.4,2.1,3.1,2.1,5.2
		c0,2.7-1,4.9-3,6.6c-2,1.7-5.2,2.6-9.4,2.6c-4.3,0-7.5-0.9-9.6-2.7s-3.1-4.1-3.1-7L47.7,167.4L47.7,167.4z"/>
	<path class="st6" d="M66.7,154.1V149h3.8v-7.6h7.1v7.6h4.5v5.1h-4.5v14.5c0,1.1,0.1,1.8,0.4,2.1c0.3,0.3,1.2,0.4,2.6,0.4
		c0.2,0,0.4,0,0.7,0c0.2,0,0.5,0,0.7,0v5.4l-3.4,0.1c-3.4,0.1-5.7-0.5-6.9-1.8c-0.8-0.8-1.2-2.1-1.2-3.8v-16.9L66.7,154.1
		L66.7,154.1z"/>
	<path class="st6" d="M103.2,149.3c1.9,0.9,3.5,2.2,4.7,4.1c1.1,1.6,1.9,3.5,2.2,5.7c0.2,1.3,0.3,3.1,0.2,5.4h-20
		c0.1,2.8,1.1,4.7,2.9,5.8c1.1,0.7,2.4,1,4,1c1.6,0,3-0.4,4-1.3c0.6-0.5,1-1.1,1.5-1.9h7.3c-0.2,1.6-1.1,3.3-2.7,5
		c-2.5,2.7-5.9,4-10.3,4c-3.6,0-6.9-1.1-9.7-3.4c-2.8-2.2-4.2-5.9-4.2-11c0-4.7,1.3-8.4,3.8-10.9s5.8-3.8,9.8-3.8
		C99.2,148,101.3,148.4,103.2,149.3z M92.5,155.5c-1,1-1.6,2.5-1.9,4.2H103c-0.1-1.9-0.8-3.3-1.9-4.3c-1.1-1-2.6-1.5-4.2-1.5
		C95,153.9,93.5,154.4,92.5,155.5z"/>
	<path class="st6" d="M128,148.1c0.1,0,0.3,0,0.6,0v7.3c-0.5-0.1-0.9-0.1-1.2-0.1s-0.6,0-0.9,0c-2.9,0-4.8,0.9-5.8,2.8
		c-0.6,1.1-0.8,2.7-0.8,4.9v13.1h-7.2v-27.4h6.8v4.8c1.1-1.8,2.1-3.1,2.9-3.7c1.3-1.1,3.1-1.7,5.2-1.7
		C127.8,148.1,127.9,148.1,128,148.1z"/>
	<path class="st6" d="M154.9,152c2.1,2.6,3.1,6,3.1,10.1c0,4.3-1,7.8-3,10.6s-4.8,4.2-8.5,4.2c-2.3,0-4.1-0.5-5.5-1.4
		c-0.8-0.5-1.7-1.5-2.7-2.8v3.4h-7.1v-37h7.2v13.2c0.9-1.3,1.9-2.2,3-2.9c1.3-0.8,3-1.3,5-1.3C150,148.1,152.8,149.4,154.9,152z
		 M148.9,168.7c1-1.5,1.5-3.5,1.5-5.9c0-1.9-0.3-3.6-0.8-4.8c-1-2.4-2.7-3.6-5.3-3.6c-2.6,0-4.4,1.2-5.4,3.5
		c-0.5,1.3-0.8,2.9-0.8,4.9c0,2.3,0.5,4.3,1.6,5.8c1,1.5,2.6,2.3,4.8,2.3C146.4,171,147.9,170.2,148.9,168.7z"/>
	<path class="st6" d="M176.9,148.1c0.1,0,0.3,0,0.6,0v7.3c-0.5-0.1-0.9-0.1-1.2-0.1s-0.6,0-0.9,0c-2.9,0-4.8,0.9-5.8,2.8
		c-0.6,1.1-0.8,2.7-0.8,4.9v13.1h-7.2v-27.4h6.8v4.8c1.1-1.8,2.1-3.1,2.9-3.7c1.3-1.1,3.1-1.7,5.2-1.7
		C176.7,148.1,176.8,148.1,176.9,148.1z"/>
	<path class="st6" d="M203.3,172.8c-2.3,2.9-5.8,4.3-10.5,4.3c-4.7,0-8.2-1.4-10.5-4.3c-2.3-2.9-3.5-6.3-3.5-10.3
		c0-4,1.2-7.4,3.5-10.3c2.3-2.9,5.8-4.3,10.5-4.3c4.7,0,8.2,1.4,10.5,4.3c2.3,2.9,3.5,6.3,3.5,10.3
		C206.8,166.5,205.6,169.9,203.3,172.8z M197.6,168.8c1.1-1.5,1.7-3.6,1.7-6.4c0-2.7-0.6-4.9-1.7-6.3c-1.1-1.5-2.7-2.2-4.8-2.2
		c-2.1,0-3.7,0.7-4.8,2.2s-1.7,3.6-1.7,6.3c0,2.7,0.6,4.9,1.7,6.4c1.1,1.5,2.7,2.2,4.8,2.2C194.9,171.1,196.5,170.3,197.6,168.8z"/>
</g>
<text transform="matrix(1 0 0 1 203.2695 178.373)" class="st7 st8 st9"> </text>
<g>
	<path class="st6" d="M247.1,139.9c2.6,0.9,4.7,2.4,6.3,4.7c1.3,1.8,2.2,3.8,2.6,6c0.5,2.1,0.7,4.2,0.7,6.1c0,4.9-1,9.1-3,12.5
		c-2.7,4.6-6.8,6.9-12.4,6.9h-16v-37.1h16C243.7,139.1,245.6,139.4,247.1,139.9z M232.9,145.5v24.2h7.2c3.7,0,6.2-1.8,7.7-5.4
		c0.8-2,1.2-4.3,1.2-7.1c0-3.8-0.6-6.7-1.8-8.7c-1.2-2-3.5-3-7.1-3H232.9z"/>
	<path class="st6" d="M261.8,181.4l0.9,0.1c0.7,0,1.4,0,2-0.1s1.2-0.3,1.6-0.6c0.4-0.3,0.8-0.9,1.2-1.8c0.4-0.9,0.5-1.5,0.5-1.7
		l-10.1-28.6h8l6,20.2l5.7-20.2h7.6l-9.4,27c-1.8,5.2-3.3,8.4-4.3,9.7c-1.1,1.2-3.2,1.9-6.3,1.9c-0.6,0-1.1,0-1.5,0
		c-0.4,0-1,0-1.7-0.1V181.4z"/>
	<path class="st6" d="M303.3,148.1c0.1,0,0.3,0,0.6,0v7.3c-0.5-0.1-0.9-0.1-1.2-0.1s-0.6,0-0.9,0c-2.9,0-4.8,0.9-5.8,2.8
		c-0.6,1.1-0.8,2.7-0.8,4.9v13.1H288v-27.4h6.8v4.8c1.1-1.8,2.1-3.1,2.9-3.7c1.3-1.1,3.1-1.7,5.2-1.7
		C303.1,148.1,303.2,148.1,303.3,148.1z"/>
	<path class="st6" d="M324.7,149.3c1.9,0.9,3.5,2.2,4.7,4.1c1.1,1.6,1.9,3.5,2.2,5.7c0.2,1.3,0.3,3.1,0.2,5.4h-20
		c0.1,2.8,1.1,4.7,2.9,5.8c1.1,0.7,2.4,1,4,1c1.6,0,3-0.4,4-1.3c0.6-0.5,1-1.1,1.5-1.9h7.3c-0.2,1.6-1.1,3.3-2.7,5
		c-2.5,2.7-5.9,4-10.3,4c-3.6,0-6.9-1.1-9.7-3.4c-2.8-2.2-4.2-5.9-4.2-11c0-4.7,1.3-8.4,3.8-10.9s5.8-3.8,9.8-3.8
		C320.7,148,322.8,148.4,324.7,149.3z M314,155.5c-1,1-1.6,2.5-1.9,4.2h12.3c-0.1-1.9-0.8-3.3-1.9-4.3c-1.1-1-2.6-1.5-4.3-1.5
		C316.4,153.9,315,154.4,314,155.5z"/>
	<path class="st6" d="M334.1,139.2h7v20l9-10.3h8.9l-9.8,10.2l10.2,17.1h-8.7l-6.6-11.7l-3,3.1v8.6h-7L334.1,139.2L334.1,139.2z"/>
	<path class="st6" d="M368.9,176.2h-7.2v-37.1h7.2V176.2z"/>
	<path class="st6" d="M382,145.5h-7.3v-6.6h7.3V145.5z M374.7,148.7h7.3v27.4h-7.3V148.7z"/>
	<path class="st6" d="M409.8,150.3c1.8,1.5,2.7,3.9,2.7,7.4v18.5h-7.3v-16.7c0-1.4-0.2-2.5-0.6-3.3c-0.7-1.4-2-2.1-4-2.1
		c-2.4,0-4.1,1-5,3.1c-0.5,1.1-0.7,2.5-0.7,4.2v14.8h-7.2v-27.4h6.9v4c0.9-1.4,1.8-2.4,2.6-3c1.5-1.1,3.3-1.7,5.6-1.7
		C405.7,148.1,408,148.8,409.8,150.3z"/>
	<path class="st6" d="M425.3,145.5H418v-6.6h7.3V145.5z M418,148.7h7.3v27.4H418V148.7z"/>
	<path class="st6" d="M430.9,139.2h7v20l9-10.3h8.9l-9.8,10.2l10.2,17.1h-8.7l-6.6-11.7l-3,3.1v8.6h-7L430.9,139.2L430.9,139.2z"/>
</g>
<g>
	<g>
		<defs>

				<rect id="SVGID_5_" x="-228.7" y="-145.7" transform="matrix(0.6293 -0.7772 0.7772 0.6293 -124.229 199.4388)" width="751.2" height="751.2"/>
		</defs>
		<clipPath id="SVGID_6_">
			<use xlink:href="#SVGID_5_"  style="overflow:visible;"/>
		</clipPath>

			<rect x="-4.7" y="152.9" transform="matrix(0.6293 -0.7772 0.7772 0.6293 -114.4703 73.8794)" class="st10" width="49.7" height="8"/>
	</g>
</g>
</svg>
